<svg width="407" height="61" viewBox="0 0 407 61" fill="none" xmlns="http://www.w3.org/2000/svg">
<path d="M86.2922 15.8184V34.9325C86.2922 45.0311 93.5777 53.2122 104.186 53.2122H105.464V44.5198C100.16 44.5198 95.8784 40.2375 95.8784 34.9325V30.0774H105.464V21.8963H95.8784V15.8184H86.2922Z" fill="black"/>
<path d="M128.141 16.6529C117.533 16.6529 108.969 24.834 108.969 34.9325C108.969 45.0311 117.533 53.2122 128.141 53.2122C136.577 53.2122 143.735 48.0351 146.291 40.8127H135.682C133.957 43.0497 131.209 44.5198 128.141 44.5198C123.987 44.5198 120.536 41.8993 119.13 38.2561H146.994C147.186 37.1696 147.313 36.083 147.313 34.9325C147.313 24.834 138.75 16.6529 128.141 16.6529ZM119.13 31.609C120.536 27.9658 123.987 25.3453 128.141 25.3453C132.231 25.3453 135.746 27.9658 137.152 31.609H119.13Z" fill="black"/>
<path d="M151.632 34.9325V52.1896H161.218V34.9325C161.218 29.6276 165.5 25.3453 170.804 25.3453V16.6529H169.526C158.918 16.6529 151.632 24.834 151.632 34.9325Z" fill="black"/>
<path d="M174.037 34.9325V52.1896H183.623V34.9325C183.623 29.6276 187.905 25.3453 193.209 25.3453V16.6529H191.931C181.323 16.6529 174.037 24.834 174.037 34.9325Z" fill="black"/>
<path d="M214.449 16.6529C203.968 16.6529 195.469 24.834 195.469 34.9325C195.469 45.0311 203.968 53.2122 214.449 53.2122C218.603 53.2122 222.31 51.103 224.483 47.9073V52.1896H233.43V34.9325C233.43 24.834 224.93 16.6529 214.449 16.6529ZM214.641 44.5198C209.337 44.5198 205.055 40.2375 205.055 34.9325C205.055 29.6276 209.337 25.3453 214.641 25.3453C219.945 25.3453 224.227 29.6276 224.227 34.9325C224.227 40.2375 219.945 44.5198 214.641 44.5198Z" fill="black"/>
<path d="M239.193 34.9325V52.1896H248.779V34.9325C248.779 29.6276 251.144 25.3453 256.448 25.3453C261.752 25.3453 264.117 29.6276 264.117 34.9325V52.1896H273.703V34.9325C273.703 29.6276 276.068 25.3453 281.372 25.3453C286.676 25.3453 289.041 29.6276 289.041 34.9325V52.1896H298.627V34.9325C298.627 24.834 291.981 16.6529 281.372 16.6529C276.387 16.6529 271.914 18.8899 268.91 22.4691C265.906 18.8899 261.433 16.6529 256.448 16.6529C245.839 16.6529 239.193 24.834 239.193 34.9325Z" fill="black"/>
<path d="M321.731 16.6529C311.251 16.6529 302.751 24.834 302.751 34.9325C302.751 45.0311 311.251 53.2122 321.731 53.2122C325.885 53.2122 329.592 51.103 331.765 47.9073V52.1896H340.712V34.9325C340.712 24.834 332.212 16.6529 321.731 16.6529ZM321.923 44.5198C316.619 44.5198 312.337 40.2375 312.337 34.9325C312.337 29.6276 316.619 25.3453 321.923 25.3453C327.228 25.3453 331.509 29.6276 331.509 34.9325C331.509 40.2375 327.228 44.5198 321.923 44.5198Z" fill="black"/>
<path d="M387.828 16.6529C377.219 16.6529 368.656 24.834 368.656 34.9325C368.656 45.0311 377.219 53.2122 387.828 53.2122C396.264 53.2122 403.421 48.0351 405.978 40.8127H395.369C393.643 43.0497 390.895 44.5198 387.828 44.5198C383.674 44.5198 380.223 41.8993 378.817 38.2561H406.681C406.872 37.1696 407 36.083 407 34.9325C407 24.834 398.436 16.6529 387.828 16.6529ZM378.817 31.609C380.223 27.9658 383.674 25.3453 387.828 25.3453C391.918 25.3453 395.433 27.9658 396.839 31.609H378.817Z" fill="black"/>
<path d="M345.54 15.8184V34.9325C345.54 45.0311 352.825 53.2122 363.434 53.2122H364.712V44.5198C359.408 44.5198 355.126 40.2375 355.126 34.9325V30.0774H364.712V21.8963H355.126V15.8184H345.54Z" fill="black"/>
<path fill-rule="evenodd" clip-rule="evenodd" d="M9.49841 5.2613C9.8871 5.52983 10.1191 5.97215 10.1191 6.4446V22.993C10.1191 24.2737 8.57139 24.9157 7.66501 24.011L0.422194 16.7816C0.151896 16.5118 0 16.1455 0 15.7636V13.6133V1.44071C0 0.281194 1.30164 -0.401664 2.25559 0.257397L9.49841 5.2613ZM29.8464 43.7416C29.2875 44.3162 28.3667 44.323 27.7994 43.7567L12.6914 28.6749C12.4211 28.4051 12.2693 28.0389 12.2693 27.657V9.89C12.2693 8.73055 13.5708 8.04767 14.5247 8.70661L20.1378 12.5838C20.378 12.7497 20.6631 12.8386 20.9551 12.8386H36.7859C37.0779 12.8386 37.3631 12.7497 37.6034 12.5837L43.0671 8.80857C44.0211 8.14946 45.3228 8.8323 45.3228 9.99184V27.2443C45.3228 27.6189 45.1767 27.9786 44.9156 28.2471L29.8464 43.7416ZM57.1189 16.0936C57.3801 15.8251 57.5262 15.4653 57.5262 15.0907V13.7674V1.59423C57.5262 0.43483 56.2248 -0.248049 55.2708 0.410785L48.0993 5.36362C47.7105 5.63214 47.4784 6.07453 47.4784 6.54707V22.463C47.4784 23.7539 49.0473 24.3912 49.9474 23.4659L57.1189 16.0936ZM0.452048 51.981C0.163557 51.7093 0 51.3305 0 50.9341V38.8839C0 37.6086 1.53659 36.9642 2.44615 37.858L9.09734 44.3942C9.37487 44.667 9.53005 45.0405 9.52746 45.4296L9.44973 57.1361C9.44139 58.3922 7.93983 59.0347 7.0255 58.1734L0.452048 51.981ZM29.2715 46.9542C29.2165 47.0102 29.1502 47.0531 29.0777 47.0805C29.0049 47.1079 28.9278 47.1254 28.8504 47.133C28.836 47.1344 28.8215 47.1352 28.807 47.1355C28.7363 47.1356 28.6664 47.1217 28.6011 47.0947C28.5359 47.0676 28.4766 47.028 28.4268 46.978L25.0954 43.6531C24.189 42.7485 22.6413 43.3905 22.6413 44.6711V54.8921C22.6413 55.2775 22.796 55.6468 23.0707 55.9172L27.8155 60.5869C28.382 61.1444 29.2933 61.1367 29.8503 60.5696L34.1112 56.2314C34.3753 55.9624 34.5233 55.6005 34.5233 55.2236V45.0965C34.5233 43.8056 32.9544 43.1683 32.0543 44.0936L29.2715 46.9542ZM50.4181 39.6736C49.5188 40.5877 47.9633 39.9568 47.9548 38.6745L47.8868 28.4377C47.8843 28.0598 48.0306 27.6962 48.294 27.4253L55.0555 20.4738C55.9556 19.5484 57.5246 20.1857 57.5246 21.4766V31.8616C57.5246 32.239 57.3762 32.6012 57.1116 32.8703L50.4181 39.6736ZM9.63338 28.8212C9.63593 28.436 9.48385 28.0659 9.21121 27.7938L2.45409 21.0494C1.54771 20.1447 0 20.7867 0 22.0673V32.624C0 33.0099 0.155035 33.3795 0.430264 33.65L7.11875 40.2214C8.02509 41.1119 9.55636 40.4756 9.56476 39.205L9.63338 28.8212ZM47.9927 44.991C47.9902 44.6103 48.1388 44.2442 48.4058 43.9728L55.0615 37.2093C55.964 36.292 57.5246 36.9312 57.5246 38.2181V51.088C57.5246 51.4844 57.361 51.8632 57.0725 52.135L50.4972 58.3276C49.5828 59.1888 48.0813 58.5462 48.0731 57.29L47.9927 44.991Z" fill="black"/>
</svg>
